<svg width="30" height="29" viewBox="0 0 30 29" fill="none" xmlns="http://www.w3.org/2000/svg">
<path d="M26.5538 19.5153C26.3564 21.0153 25.6198 22.3921 24.4815 23.3887C23.3432 24.3852 21.881 24.9333 20.3681 24.9306C11.5788 24.9306 4.42781 17.7796 4.42781 8.99028C4.42509 7.47739 4.97319 6.01523 5.96973 4.87691C6.96628 3.73859 8.34311 3.00194 9.84308 2.80456C10.2224 2.75825 10.6065 2.83585 10.9381 3.02578C11.2697 3.21571 11.5309 3.50778 11.6829 3.85839L14.0208 9.07773V9.09102C14.1371 9.35941 14.1851 9.65243 14.1606 9.94391C14.1361 10.2354 14.0397 10.5163 13.8802 10.7614C13.8603 10.7913 13.8392 10.819 13.8171 10.8467L11.5124 13.5787C12.3415 15.2635 14.1038 17.0102 15.8107 17.8416L18.5051 15.5491C18.5315 15.5268 18.5592 15.5061 18.5881 15.4871C18.8331 15.3237 19.1149 15.2239 19.4081 15.1969C19.7013 15.1698 19.9966 15.2163 20.2674 15.3321L20.2818 15.3387L25.4967 17.6755C25.8479 17.8269 26.1407 18.088 26.3312 18.4196C26.5218 18.7512 26.5999 19.1356 26.5538 19.5153Z" fill="white"/>
</svg>
