<svg width="55" height="54" viewBox="0 0 55 54" fill="none" xmlns="http://www.w3.org/2000/svg">
<g clip-path="url(#clip0_36_333)">
<path d="M37.2031 22.1062C34.039 22.4859 34.039 25.9875 34.039 25.9875H40.325C40.3672 25.9875 40.6625 22.1062 37.2031 22.1062ZM16.6156 26.6203H22.0156L19.3156 16.3265L16.6156 26.6203Z" fill="black"/>
<path d="M0.5 0V54H54.5V0H0.5ZM24.7578 37.3781L22.8594 30.5859H15.7719L13.9156 37.3781H9.95L16.7 14.2172V12.6141H21.8469L29.1453 37.3781H24.7578ZM44.1641 29.1094H34.0391C34.8406 37.2094 42.9828 33.3281 42.9828 33.3281V36.7031C42.9828 36.7031 42.4344 37.8 36.7391 37.8C31.0438 37.8 29.8625 30.0797 29.8625 30.0797V28.0969C29.8625 28.0969 30.4109 18.8156 37.1609 18.8156C43.9109 18.8156 44.1219 24.975 44.1219 24.975V29.1094H44.1641Z" fill="black"/>
</g>
<defs>
<clipPath id="clip0_36_333">
<rect x="0.5" width="54" height="54" rx="6" fill="white"/>
</clipPath>
</defs>
</svg>
