<svg width="54" height="56" viewBox="0 0 54 56" fill="none" xmlns="http://www.w3.org/2000/svg">
<path d="M16.9568 0H22.8647V2.47042H19.4272V4.94083H22.8647V7.41125H16.9568V0ZM24.0449 0H29.9551V2.14958H26.5176V2.57813H29.9551V7.51896H24.0449V5.26396H27.4824V4.83313H24.0449V0ZM31.1376 0H37.0432V2.14958H33.6057V2.57813H37.0432V7.51896H31.1376V5.26396H34.5751V4.83313H31.1376V0Z" fill="black"/>
<path fill-rule="evenodd" clip-rule="evenodd" d="M26.9794 54.7091L11.066 50.2908L6.375 10.5189H47.625L42.9363 50.2862L26.9794 54.7091ZM15.6494 28.5223L16.0871 33.3989H32.9927L32.4267 39.7239L26.9863 41.1952H26.9817L21.5504 39.7285L21.2021 35.8395H16.3048L16.9877 43.4983L26.9794 46.2712L36.9871 43.4983L38.2062 29.8308L38.3254 28.5223L39.2054 18.6475H14.7717L15.2162 23.5264H33.8613L33.4167 28.5223H15.6494Z" fill="black"/>
</svg>
