<svg width="55" height="54" viewBox="0 0 55 54" fill="none" xmlns="http://www.w3.org/2000/svg">
<path fill-rule="evenodd" clip-rule="evenodd" d="M7.25 0C3.52208 0 0.5 3.02208 0.5 6.75V47.25C0.5 50.9779 3.52208 54 7.25 54H47.75C51.4779 54 54.5 50.9779 54.5 47.25V6.75C54.5 3.02208 51.4779 0 47.75 0H7.25ZM19.85 18C19.85 16.2602 21.2602 14.85 23 14.85H26.15V21.15H23C21.2602 21.15 19.85 19.7397 19.85 18ZM32 21.15H28.85V14.85H32C33.7398 14.85 35.15 16.2602 35.15 18C35.15 19.7397 33.7398 21.15 32 21.15ZM37.85 18C37.85 19.8094 37.0286 21.4269 35.7383 22.5C37.0286 23.573 37.85 25.1905 37.85 27C37.85 30.2309 35.2309 32.85 32 32.85C30.8402 32.85 29.7593 32.5125 28.85 31.9304V36C28.85 39.2309 26.2309 41.85 23 41.85C19.7691 41.85 17.15 39.2309 17.15 36C17.15 34.1905 17.9714 32.573 19.2617 31.5C17.9714 30.4269 17.15 28.8094 17.15 27C17.15 25.1905 17.9714 23.573 19.2617 22.5C17.9714 21.4269 17.15 19.8094 17.15 18C17.15 14.769 19.7691 12.15 23 12.15H27.5H32C35.2309 12.15 37.85 14.769 37.85 18ZM28.85 27C28.85 25.2602 30.2602 23.85 32 23.85C33.7398 23.85 35.15 25.2602 35.15 27C35.15 28.7397 33.7398 30.15 32 30.15C30.2602 30.15 28.85 28.7397 28.85 27ZM26.15 27V23.85H23C21.2602 23.85 19.85 25.2602 19.85 27C19.85 28.7397 21.2602 30.15 23 30.15H26.15V27ZM19.85 36C19.85 34.2602 21.2602 32.85 23 32.85H26.15V36C26.15 37.7397 24.7398 39.15 23 39.15C21.2602 39.15 19.85 37.7397 19.85 36Z" fill="black"/>
</svg>
