<svg width="54" height="58" viewBox="0 0 54 58" fill="none" xmlns="http://www.w3.org/2000/svg">
<path d="M29.9375 5.97912L31.8333 8.95829L33.7292 5.97912V10.0416H36.4375V1.91663H33.7292L31.8333 4.89579L30.2083 1.91663H27.2292V10.0416H29.9375V5.97912ZM44.2917 10.0416V7.33329H40.5V1.91663H37.7917V10.0416H44.2917ZM21 10.0416H23.7083V4.62496H26.1458V1.91663H18.5625V4.62496H21V10.0416ZM12.3333 7.33329H14.7708V10.0416H17.4792V1.91663H14.7708V4.62496H12.3333V1.91663H9.625V10.0416H12.3333V7.33329ZM8 12.75L11.25 51.7499L26.9583 56.0833L42.6667 51.7499L45.9167 12.75H8ZM38.6042 25.2083H20.1875L20.7292 30.0833H38.0625L36.7083 44.9791L26.9583 47.6874L17.2083 44.9791L16.3958 37.1249H21.2708L21.5417 41.1874L26.9583 42.5416L32.375 41.1874L32.9167 34.9583H16.125L14.7708 20.6041H39.1458L38.6042 25.2083Z" fill="black"/>
</svg>
