<svg width="55" height="54" viewBox="0 0 55 54" fill="none" xmlns="http://www.w3.org/2000/svg">
<g clip-path="url(#clip0_36_328)">
<path fill-rule="evenodd" clip-rule="evenodd" d="M18.6458 11.3915H24.2709L32.3596 38.4907H27.4736L25.4617 30.7716H17.5783L15.5253 38.4908H11.214L18.6459 12.6644L18.6458 11.3915ZM24.353 26.7889L21.5609 15.333L18.6868 26.7886L24.353 26.7889ZM40.7358 18.3514H36.3014V38.4908H40.7358V18.3514ZM38.4614 10.5269C37.0248 10.5269 35.8602 11.6781 35.8602 13.0983C35.8602 14.5184 37.0248 15.6697 38.4614 15.6697C39.898 15.6697 41.0626 14.5185 41.0626 13.0984C41.0626 11.6782 39.8981 10.5269 38.4614 10.5269ZM54.5 54H0.5V0H54.5V54Z" fill="black"/>
</g>
<defs>
<clipPath id="clip0_36_328">
<rect x="0.5" width="54" height="54" rx="6" fill="white"/>
</clipPath>
</defs>
</svg>
