<svg width="59" height="59" viewBox="0 0 59 59" fill="none" xmlns="http://www.w3.org/2000/svg">
<path d="M12.7947 9.41281C9.40593 14.2826 9.82769 20.6191 12.4168 25.7945L12.6062 26.1624L12.7274 26.3956L12.803 26.5297L12.9381 26.7713C13.0183 26.9126 13.1006 27.0538 13.1852 27.1949L13.3262 27.4272C13.4196 27.5774 13.5152 27.7269 13.6129 27.8757L13.7351 28.0642C13.87 28.2658 14.0084 28.4657 14.1504 28.6639L14.1623 28.6791L14.2324 28.7736C14.3556 28.9432 14.4818 29.1111 14.6108 29.2774L14.7533 29.4585C14.8682 29.6026 14.9848 29.7461 15.1031 29.889L15.2368 30.0485C15.3958 30.2357 15.5585 30.4228 15.724 30.6053L15.7337 30.6155L15.7526 30.6362C15.9144 30.8127 16.0798 30.9856 16.2481 31.1585L16.4066 31.3184C16.5369 31.449 16.6688 31.5782 16.8021 31.706L16.9639 31.86C17.1418 32.0281 17.3225 32.1925 17.506 32.3532L17.5143 32.3606L17.6088 32.4408C17.7707 32.5812 17.9348 32.7198 18.1011 32.8565L18.3048 33.0193C18.4403 33.1277 18.577 33.2347 18.715 33.3401L18.9349 33.5065C19.087 33.6183 19.2405 33.7285 19.3954 33.837L19.5627 33.9559L19.6092 33.9891C19.7558 34.0905 19.9065 34.1877 20.0563 34.285L20.2499 34.4141C20.4804 34.5593 20.7141 34.7035 20.9501 34.8427L21.1437 34.952C21.3173 35.0521 21.4925 35.1503 21.6692 35.2465L21.96 35.3968L22.3361 35.5922L22.4228 35.6342L22.5768 35.7084C22.7734 35.8027 22.9721 35.8947 23.1727 35.9845L23.2986 36.0407C23.5281 36.1412 23.7598 36.2377 23.9937 36.3302L24.1633 36.3965C24.3799 36.4807 24.5986 36.5617 24.8192 36.6395L24.9017 36.668C25.1433 36.7529 25.3875 36.8307 25.6332 36.9077L25.8098 36.9603C26.0596 37.0359 26.3071 37.1253 26.5648 37.1732C42.9525 40.1615 47.7126 27.3258 47.7126 27.3258C43.7144 32.5344 36.6183 33.9079 29.8946 32.3786C29.6397 32.3209 29.3926 32.2412 29.1442 32.1684L28.957 32.1112C28.7147 32.0373 28.4738 31.9589 28.2343 31.8761L28.1352 31.8406C27.9217 31.765 27.7093 31.6861 27.4982 31.6042L27.3193 31.5341C27.0879 31.4429 26.8587 31.3476 26.6316 31.2483L26.4943 31.187C26.2997 31.0996 26.1062 31.0097 25.9139 30.9174L25.7462 30.8367C25.5954 30.7634 25.4465 30.6855 25.2972 30.6086L24.9981 30.4514C24.8164 30.3543 24.6371 30.2538 24.4601 30.1499L24.2785 30.049C24.0428 29.9094 23.8092 29.7662 23.5779 29.6194L23.3889 29.4935C23.2211 29.3857 23.055 29.2752 22.8907 29.1621L22.7298 29.0492C22.5714 28.9377 22.4144 28.8243 22.2587 28.709L22.0499 28.5509C21.9067 28.4418 21.765 28.3311 21.6249 28.2186L21.4355 28.0665C21.2566 27.9202 21.0801 27.7713 20.9059 27.6198L20.8478 27.5714C20.6597 27.4055 20.4741 27.2368 20.291 27.0653L20.1342 26.9141C19.9985 26.7859 19.8651 26.6551 19.7342 26.5219L19.5774 26.3652C19.4106 26.1946 19.2469 26.0216 19.0865 25.8462L19.0621 25.8199C18.8925 25.6343 18.7265 25.4454 18.5643 25.2534L18.4338 25.0985C18.3124 24.9525 18.193 24.8048 18.0757 24.6556L17.9443 24.4919C17.8038 24.3103 17.6658 24.1266 17.5304 23.9411C13.7977 18.8491 12.4564 11.8263 15.4401 6.05903M23.3133 5.30954C20.863 8.83571 20.9957 13.5571 22.9077 17.2861C23.2279 17.9128 23.5899 18.5172 23.9914 19.0953C24.3583 19.6221 24.7657 20.2481 25.253 20.6707C25.4295 20.8653 25.6143 21.0552 25.8029 21.2414L25.9476 21.3847C26.1301 21.5627 26.3173 21.7366 26.509 21.9065L26.5321 21.9263L26.5376 21.9319C26.7505 22.1185 26.9704 22.2979 27.1935 22.4749L27.3424 22.591C27.5664 22.7625 27.7946 22.9312 28.0287 23.092L28.0485 23.1073L28.362 23.3133L28.5104 23.4115C28.6776 23.519 28.8472 23.6229 29.0193 23.7231L29.0912 23.7655C29.2399 23.8509 29.3897 23.9346 29.5406 24.0167L29.7005 24.0997L30.0149 24.2628L30.0624 24.2845C30.2778 24.3911 30.4966 24.493 30.7188 24.5901L30.8635 24.65C31.0414 24.7256 31.2207 24.7983 31.4014 24.868L31.6319 24.9529C31.796 25.0137 31.9601 25.0695 32.126 25.1248L32.3491 25.1962C32.5846 25.2691 32.8179 25.3617 33.0631 25.4027C45.7158 27.4986 48.6368 17.7567 48.6368 17.7567C46.0039 21.5493 40.9045 23.3585 35.4632 21.9462C35.2227 21.8827 34.9837 21.8137 34.7464 21.7392L34.5312 21.6696C34.363 21.6154 34.196 21.558 34.0301 21.4972L33.8038 21.4129C33.6227 21.3431 33.4428 21.2704 33.264 21.1948L33.1189 21.1335C32.8964 21.0365 32.6763 20.9341 32.4588 20.8265L32.1278 20.6583L31.937 20.5601C31.7957 20.4833 31.656 20.4043 31.518 20.3232L31.418 20.2665C31.2469 20.1668 31.0778 20.0635 30.911 19.9568L30.7579 19.8549L30.4297 19.6373C30.1976 19.4763 29.9695 19.3096 29.7457 19.1372L29.5918 19.0155C27.2101 17.1354 25.3221 14.5652 24.4246 11.6511C23.4839 8.62875 23.6867 5.23625 25.3166 2.48261M32.1601 2.24385C30.7155 4.36969 30.5736 7.0104 31.5761 9.35842C32.633 11.8507 34.799 13.8055 37.3272 14.7329L37.6416 14.8413L37.7799 14.8855C37.9287 14.9325 38.0767 14.9869 38.2306 15.0155C45.2171 16.3656 47.112 11.4308 47.6163 10.7039C45.9564 13.0939 43.1668 13.6677 39.7439 12.8367C39.4639 12.7651 39.1876 12.6797 38.9161 12.5808C38.5813 12.462 38.2529 12.3257 37.9324 12.1724C37.3241 11.8801 36.7464 11.5277 36.2081 11.1206C33.1451 8.79653 31.2428 4.3637 33.2415 0.753174" fill="black"/>
<path d="M30.5874 44.386H28.6395C28.5844 44.3884 28.5316 44.4083 28.4887 44.4429C28.4458 44.4775 28.4152 44.5249 28.4011 44.5782L27.7097 47.7771L27.0183 50.976C27.0047 51.0294 26.9742 51.077 26.9314 51.1116C26.8885 51.1463 26.8356 51.1661 26.7805 51.1682H25.4018C24.0379 51.1682 24.1956 50.2246 24.4749 48.9322L24.4832 48.893L24.5136 48.7298L24.5191 48.6994L24.5814 48.3675L24.6482 48.0122L24.7192 47.6503L25.0335 46.1145L25.3484 44.5786C25.3544 44.5552 25.3548 44.5306 25.3496 44.507C25.3444 44.4833 25.3337 44.4612 25.3184 44.4424C25.3032 44.4237 25.2837 44.4087 25.2616 44.3988C25.2395 44.3889 25.2154 44.3844 25.1912 44.3855H23.1921C23.137 44.3875 23.0841 44.4074 23.0414 44.4422C22.9986 44.4769 22.9684 44.5247 22.9552 44.5782L22.5251 46.6174L22.0955 48.657L22.0946 48.6598L22.055 48.8497C21.5599 51.1096 21.6908 53.2655 24.3818 53.3332L24.4601 53.3346H28.6837C28.7388 53.3325 28.7917 53.3127 28.8346 53.278C28.8774 53.2434 28.908 53.1958 28.9215 53.1424L29.8324 48.8607L30.7432 44.5786C30.7658 44.4726 30.6957 44.3864 30.5874 44.386ZM9.72719 44.3634H7.58844C7.53315 44.3654 7.47996 44.3851 7.43672 44.4196C7.39348 44.4541 7.36248 44.5016 7.34829 44.5551L7.14548 45.4503L6.94267 46.3454C6.91916 46.451 6.98784 46.5371 7.09616 46.5371H9.2515C9.30661 46.5348 9.35953 46.5149 9.4025 46.4803C9.44547 46.4457 9.47623 46.3983 9.49027 46.3449L9.68617 45.4503L9.88206 44.5556C9.90465 44.45 9.83551 44.3634 9.72719 44.3634ZM9.10677 47.1493H6.95096C6.89567 47.1513 6.84248 47.171 6.79924 47.2055C6.75601 47.24 6.72501 47.2875 6.71081 47.341L6.40798 48.6824L6.1056 50.0232L6.02125 50.4076L5.7304 51.7766L5.44001 53.1461C5.41742 53.2516 5.37087 53.4222 5.3363 53.5245C5.3363 53.5245 4.93344 54.7229 4.25632 54.7091L4.17151 54.7073L3.58566 54.6967C3.53066 54.6981 3.47711 54.7171 3.43366 54.7508C3.39021 54.7846 3.35868 54.8313 3.34367 54.8843L3.12011 55.8241L2.89702 56.7635C2.87167 56.8686 2.93989 56.9553 3.04728 56.9571C3.43125 56.9617 4.29135 56.9714 4.81175 56.9714C6.50293 56.9714 7.39485 56.0343 7.96595 53.3378L8.63477 50.2431L9.2621 47.3406C9.28469 47.2359 9.21463 47.1493 9.10677 47.1493ZM48.8013 46.4238L48.7119 46.0545L48.6238 45.6766L48.5791 45.4858C48.404 44.8049 47.89 44.4127 46.7736 44.4127L45.0359 44.4108L43.4355 44.4085H41.6347C41.5796 44.4104 41.5266 44.4302 41.4838 44.4649C41.4409 44.4996 41.4106 44.5473 41.3973 44.6008L41.3175 44.9769L41.2235 45.4212L41.1972 45.5461L40.3864 49.3443L39.6167 52.9497C39.5936 53.0557 39.5863 53.1857 39.5992 53.2383C39.6121 53.2913 39.8199 53.3346 39.9278 53.3346H41.5522C41.6605 53.3346 41.7974 53.3152 41.8564 53.2913C41.9154 53.2673 42.0025 53.0548 42.0241 52.9493L42.3127 51.5208L42.6017 50.0919L42.6022 50.0896L42.6409 49.8992L42.9912 48.2583L43.3005 46.8091C43.3141 46.7558 43.3446 46.7083 43.3873 46.6737C43.4301 46.6391 43.4829 46.6191 43.5379 46.6169L48.6492 46.6146C48.7575 46.6155 48.8257 46.5293 48.8013 46.4238ZM55.3812 43.0866L54.9875 43.088H53.3517C53.2917 43.0912 53.2332 43.1074 53.1801 43.1355C53.127 43.1636 53.0807 43.2029 53.0442 43.2507L49.4263 48.5505C49.3655 48.6399 49.2959 48.627 49.2719 48.5219L49.0055 47.3544C48.9913 47.3008 48.9602 47.2533 48.9169 47.2188C48.8736 47.1842 48.8203 47.1645 48.7649 47.1626H46.4395C46.3311 47.1626 46.2671 47.2475 46.2966 47.3512L47.3388 51.0023C47.3683 51.1064 47.3706 51.277 47.3438 51.3821L46.8898 53.1488C46.8626 53.2539 46.929 53.3392 47.0373 53.3392H49.336C49.3916 53.3369 49.4451 53.3174 49.4891 53.2833C49.533 53.2491 49.5652 53.2021 49.5812 53.1488L50.0357 51.3821C50.0715 51.2575 50.1281 51.1398 50.203 51.0341L56.0763 43.2391C56.1417 43.1525 56.1062 43.082 55.9984 43.0829L55.3812 43.0866ZM36.9041 47.6586V47.6568C36.8961 47.7124 36.8686 47.7634 36.8264 47.8007C36.7843 47.8379 36.7303 47.859 36.674 47.86H33.7254C33.6231 47.86 33.5715 47.7909 33.5867 47.7052L33.5895 47.6983L33.5876 47.6992L33.589 47.6895L33.6024 47.6392C33.884 46.8907 34.4574 46.3993 35.5355 46.3993C36.7496 46.3989 36.9866 46.9916 36.9041 47.6586ZM36.0389 44.255C32.2541 44.255 31.3571 46.5524 30.8538 48.8713C30.3509 51.235 30.3938 53.4443 34.3108 53.4443H34.7856L34.9036 53.4438H34.9312L35.4014 53.4425H35.4097C36.444 53.4383 37.4816 53.4305 37.9015 53.4272C37.9563 53.4247 38.0088 53.4044 38.0511 53.3695C38.0934 53.3346 38.1232 53.287 38.1361 53.2336L38.2947 52.4588L38.3256 52.3081L38.5146 51.3834C38.5206 51.36 38.521 51.3355 38.5158 51.3119C38.5106 51.2882 38.5 51.2661 38.4847 51.2474C38.4694 51.2286 38.4499 51.2138 38.4278 51.2039C38.4057 51.1941 38.3816 51.1896 38.3574 51.1908H34.8363C33.4355 51.1908 33.0197 50.8188 33.1732 49.7245H38.8017L38.8013 49.725L38.805 49.7245C38.8495 49.7228 38.8926 49.7081 38.9291 49.6824C38.9655 49.6566 38.9936 49.6208 39.0101 49.5793L39.0234 49.5305L39.023 49.5309C39.8587 46.3786 39.619 44.2555 36.0389 44.255ZM18.1499 47.6466L18.0964 47.8351L17.6714 49.342L17.2465 50.8478C17.2289 50.9011 17.1955 50.9477 17.1508 50.9815C17.1061 51.0153 17.0522 51.0348 16.9962 51.0373H14.7468C13.0404 51.0373 12.6246 49.7024 13.0404 47.7342C13.4557 45.7208 14.2702 44.4694 15.9498 44.3426C18.2453 44.1693 18.7044 45.7835 18.1499 47.6466ZM19.6931 50.9216C19.6931 50.9216 20.7537 48.3459 20.9943 46.8589C21.323 44.8681 20.326 41.9799 16.4753 41.9799C12.6468 41.9799 10.9837 44.7367 10.3495 47.7342C9.7152 50.7533 10.5463 53.4005 14.3532 53.3788L17.3566 53.3678L20.1633 53.3576C20.2189 53.3549 20.2723 53.3351 20.3164 53.301C20.3604 53.2668 20.3929 53.22 20.4094 53.1668L20.8985 51.3019C20.9257 51.1968 20.8597 51.111 20.7514 51.1101L20.2827 51.1073L19.8139 51.1046C19.7222 51.1041 19.6696 51.0442 19.6807 50.9654L19.6931 50.9216ZM38.6469 49.1972C38.6469 49.2142 38.6436 49.231 38.6371 49.2466C38.6307 49.2623 38.6212 49.2765 38.6092 49.2885C38.5973 49.3006 38.583 49.3101 38.5674 49.3166C38.5518 49.3231 38.535 49.3265 38.518 49.3265C38.5011 49.3265 38.4843 49.3232 38.4686 49.3168C38.453 49.3103 38.4387 49.3008 38.4267 49.2889C38.4147 49.2769 38.4052 49.2627 38.3986 49.2471C38.3921 49.2314 38.3888 49.2146 38.3887 49.1977C38.3887 49.1635 38.4022 49.1306 38.4264 49.1064C38.4505 49.0821 38.4833 49.0684 38.5176 49.0684C38.5518 49.0683 38.5846 49.0819 38.6089 49.106C38.6331 49.1302 38.6468 49.163 38.6469 49.1972Z" fill="black"/>
</svg>
