<svg width="55" height="54" viewBox="0 0 55 54" fill="none" xmlns="http://www.w3.org/2000/svg">
<g clip-path="url(#clip0_36_326)">
<path fill-rule="evenodd" clip-rule="evenodd" d="M54.5 54H0.5V0H54.5V54ZM43.3636 22.8882V18.7C42.6738 18.3929 38.7239 17.263 35.6034 18.4538C31.1083 20.1689 31.2698 25.3358 32.9755 27.3637C35.1856 29.9911 40.6834 30.9707 39.7837 33.5496C39.3179 34.8851 37.143 35.1175 35.2256 34.6692C33.44 34.2517 31.8875 33.1941 31.8875 33.1941V37.6285C31.8875 37.6285 33.4221 38.4841 35.3055 38.6876C37.72 38.9485 40.7466 38.4559 42.2628 37.1082C44.9617 34.7091 45.3762 29.3946 40.2615 26.9267C36.0053 24.8732 36.0753 24.2871 36.1052 23.2338C36.1453 21.8231 39.1073 20.9546 43.3636 22.8882ZM20.4114 11.1349C23.9528 11.2581 29.1571 12.8902 29.1571 19.8497C29.1571 26.8093 22.7896 29.093 16.9794 28.5954V38.4497H12.6511V11.2271C12.6511 11.2271 16.87 11.0117 20.4114 11.1349ZM21.5353 24.2842C23.4017 23.6032 24.6148 22.1392 24.6148 19.865C24.6148 17.4539 23.3803 15.8212 21.4922 15.3599C19.4476 14.8603 16.9793 15.1548 16.9793 15.1548V24.6516C16.9793 24.6516 20.3959 24.6999 21.5353 24.2842Z" fill="black"/>
</g>
<defs>
<clipPath id="clip0_36_326">
<rect x="0.5" width="54" height="54" rx="6" fill="white"/>
</clipPath>
</defs>
</svg>
