<svg width="55" height="54" viewBox="0 0 55 54" fill="none" xmlns="http://www.w3.org/2000/svg">
<g clip-path="url(#clip0_36_336)">
<path d="M21.7203 16.2422H18.5984V24.975H21.7203C23.8296 24.975 25.5593 23.2453 25.5593 21.1359V20.1234C25.5593 17.9719 23.8296 16.2422 21.7203 16.2422Z" fill="black"/>
<path d="M0.5 0V54H54.5V0H0.5ZM22.1 28.4766H18.5984V37.4625H14.5484V12.7828H22.3531C26.3188 12.7406 29.5672 15.9047 29.6094 19.8703V20.8406C29.6094 25.0172 26.2344 28.4344 22.1 28.4766ZM41.5484 22.4859C41.5484 22.4859 38.5953 22.4859 37.2875 23.0344V37.4625H33.0266V20.6297C33.0266 20.6297 37.3297 18.4781 41.5484 19.0266V22.4859Z" fill="black"/>
</g>
<defs>
<clipPath id="clip0_36_336">
<rect x="0.5" width="54" height="54" rx="6" fill="white"/>
</clipPath>
</defs>
</svg>
