<svg width="55" height="54" viewBox="0 0 55 54" fill="none" xmlns="http://www.w3.org/2000/svg">
<path fill-rule="evenodd" clip-rule="evenodd" d="M6.5 0C3.18629 0 0.5 2.68629 0.5 6V48C0.5 51.3137 3.18629 54 6.5 54H48.5C51.8137 54 54.5 51.3137 54.5 48V6C54.5 2.68629 51.8137 0 48.5 0H6.5ZM33.782 11.281L40.365 14.448L40.367 14.446C41.059 14.779 41.502 15.482 41.502 16.248V37.743C41.503 38.1194 41.3975 38.4884 41.1975 38.8073C40.9975 39.1263 40.7113 39.382 40.372 39.545L33.783 42.717C33.4115 42.8974 32.993 42.9573 32.5858 42.8883C32.1787 42.8192 31.8033 42.6248 31.512 42.332L18.897 30.822L13.402 34.994C13.1545 35.1832 12.8485 35.2795 12.5373 35.2662C12.226 35.2528 11.9294 35.1307 11.699 34.921L9.939 33.317C9.80144 33.1927 9.69139 33.041 9.61591 32.8716C9.54044 32.7023 9.50121 32.519 9.50074 32.3336C9.50026 32.1482 9.53856 31.9647 9.61318 31.795C9.68779 31.6253 9.79707 31.473 9.934 31.348L14.7 26.999L9.934 22.65C9.79707 22.525 9.68779 22.3727 9.61318 22.203C9.53856 22.0333 9.50026 21.8498 9.50074 21.6644C9.50121 21.479 9.54044 21.2957 9.61591 21.1264C9.69139 20.957 9.80144 20.8053 9.939 20.681L11.699 19.077C11.9294 18.8673 12.226 18.7452 12.5373 18.7318C12.8485 18.7185 13.1545 18.8148 13.402 19.004L18.897 23.171L31.506 11.666C31.7983 11.3732 32.1746 11.1788 32.5825 11.1098C32.9904 11.0408 33.4097 11.1006 33.782 11.281ZM23.932 27L33.505 34.266V19.734L23.932 27Z" fill="black"/>
</svg>
